<svg width="16" height="18" viewBox="0 0 16 18" fill="none" xmlns="http://www.w3.org/2000/svg">
<path d="M8.00223 0C3.96678 0 0.695312 3.27146 0.695312 7.30692C0.695312 10.9677 5.2479 15.7842 7.16641 17.6515C7.63631 18.108 8.37927 18.1175 8.8583 17.6702C10.7883 15.8711 15.3092 11.2364 15.3092 7.30652C15.3088 3.27146 12.0377 0 8.00223 0ZM8.00223 9.68104C6.33376 9.68104 4.98199 8.32928 4.98199 6.6612C4.98199 4.99312 6.33376 3.64096 8.00223 3.64096C9.67031 3.64096 11.0217 4.99272 11.0217 6.6612C11.0217 8.32967 9.67031 9.68104 8.00223 9.68104Z" fill="#FF7A00"/>
</svg>
