<svg width="18" height="18" viewBox="0 0 18 18" fill="none" xmlns="http://www.w3.org/2000/svg">
<g clip-path="url(#clip0)">
<path d="M9.98041 0H7.40291C7.06209 0 6.78516 0.27693 6.78516 0.617751C6.78516 0.958571 7.06209 1.2355 7.40291 1.2355H9.98041C10.3212 1.2355 10.5982 0.958571 10.5982 0.617751C10.5982 0.27693 10.3212 0 9.98041 0Z" fill="#FF7A00"/>
<path d="M16.8608 4.06853L15.178 2.3857C14.9437 2.15138 14.5603 2.15138 14.3046 2.3857C14.0703 2.62003 14.0703 3.00346 14.3046 3.25906L15.9662 4.9206C16.094 5.04843 16.2431 5.09104 16.3922 5.09104C16.5413 5.09104 16.7118 5.02714 16.8183 4.9206C17.0952 4.68628 17.0952 4.30285 16.8608 4.06853Z" fill="#FF7A00"/>
<path d="M8.68002 2.57812C4.41965 2.57812 0.96875 6.02902 0.96875 10.2894C0.96875 14.5497 4.41965 18.0006 8.68002 18.0006C12.9404 18.0006 16.3912 14.5497 16.3912 10.2894C16.3912 6.02902 12.9404 2.57812 8.68002 2.57812ZM11.8753 11.1201H8.68002C8.3392 11.1201 8.06227 10.8432 8.06227 10.5024V6.49767C8.06227 6.15684 8.3392 5.87991 8.68002 5.87991C9.02084 5.87991 9.29777 6.15684 9.29777 6.49767V9.90595H11.8753C12.2161 9.90595 12.493 10.1829 12.493 10.5237C12.493 10.8432 12.2161 11.1201 11.8753 11.1201Z" fill="#FF7A00"/>
</g>
<defs>
<clipPath id="clip0">
<rect width="18" height="18" fill="white"/>
</clipPath>
</defs>
</svg>
